<?xml version="1.0" standalone="no"?>
<!DOCTYPE svg PUBLIC "-//W3C//DTD SVG 20010904//EN"
 "http://www.w3.org/TR/2001/REC-SVG-20010904/DTD/svg10.dtd">
<svg version="1.0" xmlns="http://www.w3.org/2000/svg"
 width="700.000000pt" height="700.000000pt" viewBox="0 0 700.000000 700.000000"
 preserveAspectRatio="xMidYMid meet">
<metadata>
Created by potrace 1.11, written by Peter Selinger 2001-2013
</metadata>
<g transform="translate(0.000000,700.000000) scale(0.100000,-0.100000)"
fill="#000000" stroke="none">
<path d="M1085 6980 c-126 -23 -181 -39 -275 -79 -409 -170 -685 -506 -787
-956 -17 -76 -18 -197 -18 -2440 0 -2242 1 -2364 18 -2445 58 -273 173 -486
362 -675 137 -136 263 -218 470 -306 49 -20 184 -54 265 -66 68 -10 4685 -11
4755 -1 28 4 59 9 70 12 11 2 41 9 66 15 139 32 323 118 449 211 283 208 467
509 525 860 12 72 14 447 12 2430 -3 2579 2 2355 -62 2560 -129 409 -502 761
-908 856 -187 45 -78 43 -2522 43 -2214 -1 -2325 -2 -2420 -19z m2501 -1319
c52 -24 101 -83 111 -135 5 -23 9 -533 8 -1133 0 -601 2 -1093 5 -1093 2 0
178 173 390 384 394 393 390 390 478 401 73 9 174 -57 202 -131 16 -40 11
-116 -9 -159 -13 -27 -204 -225 -592 -612 -491 -489 -580 -573 -614 -582 -58
-16 -104 -13 -150 8 -27 13 -224 204 -611 592 -622 625 -602 600 -591 705 11
102 89 174 195 179 86 4 112 -18 507 -414 203 -204 372 -371 375 -371 3 0 5
494 5 1098 -1 603 3 1113 8 1133 11 47 58 104 105 129 47 25 125 25 178 1z
m1991 -3960 c59 -34 94 -90 100 -161 9 -96 -41 -174 -132 -210 -23 -9 -526
-12 -2047 -12 l-2018 -1 -47 25 c-28 14 -60 42 -78 67 -27 38 -30 51 -30 114
0 63 4 77 29 114 18 27 46 51 79 68 l51 25 2025 -3 2026 -2 42 -24z"/>
</g>
</svg>
